<?xml version="1.0" standalone="no"?><svg xmlns="http://www.w3.org/2000/svg" viewBox="0 0 1440 320"><path fill="#00cba9" fill-opacity="1" d="M0,288L13.3,288C26.7,288,53,288,80,250.7C106.7,213,133,139,160,112C186.7,85,213,107,240,96C266.7,85,293,43,320,69.3C346.7,96,373,192,400,197.3C426.7,203,453,117,480,106.7C506.7,96,533,160,560,176C586.7,192,613,160,640,149.3C666.7,139,693,149,720,128C746.7,107,773,53,800,32C826.7,11,853,21,880,64C906.7,107,933,181,960,208C986.7,235,1013,213,1040,176C1066.7,139,1093,85,1120,74.7C1146.7,64,1173,96,1200,106.7C1226.7,117,1253,107,1280,128C1306.7,149,1333,203,1360,229.3C1386.7,256,1413,256,1427,256L1440,256L1440,0L1426.7,0C1413.3,0,1387,0,1360,0C1333.3,0,1307,0,1280,0C1253.3,0,1227,0,1200,0C1173.3,0,1147,0,1120,0C1093.3,0,1067,0,1040,0C1013.3,0,987,0,960,0C933.3,0,907,0,880,0C853.3,0,827,0,800,0C773.3,0,747,0,720,0C693.3,0,667,0,640,0C613.3,0,587,0,560,0C533.3,0,507,0,480,0C453.3,0,427,0,400,0C373.3,0,347,0,320,0C293.3,0,267,0,240,0C213.3,0,187,0,160,0C133.3,0,107,0,80,0C53.3,0,27,0,13,0L0,0Z"></path></svg>